<svg width="6" height="10" viewBox="0 0 6 10" fill="none" xmlns="http://www.w3.org/2000/svg">
<path d="M0.211344 9.78788C0.0704481 9.64698 0 9.48407 0 9.29914C0 9.11422 0.0704481 8.95131 0.211344 8.81041L4.02875 4.99301L0.198135 1.16239C0.0660451 1.0303 0 0.871795 0 0.686869C0 0.501943 0.0704481 0.339031 0.211344 0.198135C0.343434 0.0660451 0.504144 0 0.693473 0C0.882802 0 1.04351 0.0660451 1.1756 0.198135L5.5742 4.59674C5.63585 4.65838 5.67987 4.72222 5.70629 4.78827C5.73271 4.85431 5.74592 4.92256 5.74592 4.99301C5.74592 5.06345 5.73271 5.1317 5.70629 5.19775C5.67987 5.26379 5.63585 5.32764 5.5742 5.38928L1.16239 9.80109C1.0215 9.94198 0.860787 10.008 0.680264 9.99922C0.499741 9.99042 0.343434 9.91997 0.211344 9.78788Z" fill="#9D9EA1"/>
</svg>
