<svg width="20" height="20" viewBox="0 0 20 20" fill="none" xmlns="http://www.w3.org/2000/svg">
<circle cx="10" cy="10" r="8" fill="#D9D9D9"/>
<mask id="mask0_788_6080" style="mask-type:alpha" maskUnits="userSpaceOnUse" x="4" y="4" width="12" height="12">
<rect x="4" y="4" width="12" height="12" fill="#D9D9D9"/>
</mask>
<g mask="url(#mask0_788_6080)">
<path d="M10.0004 10.6999L7.55039 13.1499C7.45872 13.2416 7.34206 13.2874 7.20039 13.2874C7.05872 13.2874 6.94206 13.2416 6.85039 13.1499C6.75872 13.0582 6.71289 12.9416 6.71289 12.7999C6.71289 12.6582 6.75872 12.5416 6.85039 12.4499L9.30039 9.9999L6.85039 7.5499C6.75872 7.45824 6.71289 7.34157 6.71289 7.1999C6.71289 7.05824 6.75872 6.94157 6.85039 6.8499C6.94206 6.75824 7.05872 6.7124 7.20039 6.7124C7.34206 6.7124 7.45872 6.75824 7.55039 6.8499L10.0004 9.2999L12.4504 6.8499C12.5421 6.75824 12.6587 6.7124 12.8004 6.7124C12.9421 6.7124 13.0587 6.75824 13.1504 6.8499C13.2421 6.94157 13.2879 7.05824 13.2879 7.1999C13.2879 7.34157 13.2421 7.45824 13.1504 7.5499L10.7004 9.9999L13.1504 12.4499C13.2421 12.5416 13.2879 12.6582 13.2879 12.7999C13.2879 12.9416 13.2421 13.0582 13.1504 13.1499C13.0587 13.2416 12.9421 13.2874 12.8004 13.2874C12.6587 13.2874 12.5421 13.2416 12.4504 13.1499L10.0004 10.6999Z" fill="white"/>
</g>
</svg>
