<svg width="15" height="17" viewBox="0 0 15 17" fill="none" xmlns="http://www.w3.org/2000/svg">
<path d="M5 7.5H3.33333V9.16667H5V7.5ZM8.33333 7.5H6.66667V9.16667H8.33333V7.5ZM11.6667 7.5H10V9.16667H11.6667V7.5ZM13.3333 1.66667H12.5V0H10.8333V1.66667H4.16667V0H2.5V1.66667H1.66667C0.741667 1.66667 0.00833333 2.41667 0.00833333 3.33333L0 15C0 15.9167 0.741667 16.6667 1.66667 16.6667H13.3333C14.25 16.6667 15 15.9167 15 15V3.33333C15 2.41667 14.25 1.66667 13.3333 1.66667ZM13.3333 15H1.66667V5.83333H13.3333V15Z" fill="#3A3A3C"/>
</svg>
