<svg width="22" height="19" viewBox="0 0 22 19" fill="none" xmlns="http://www.w3.org/2000/svg">
<path d="M18.2402 12.8651C18.102 12.7269 18.0303 12.553 18.0252 12.3434C18.02 12.1338 18.0867 11.9412 18.2252 11.7655C18.7739 11.1194 19.2053 10.3902 19.5194 9.57794C19.8335 8.76569 19.9906 7.90643 19.9906 7.00014C19.9906 6.10143 19.8335 5.24919 19.5194 4.44342C19.2053 3.63764 18.7739 2.91167 18.2252 2.26552C18.0867 2.08989 18.0159 1.89887 18.0127 1.69247C18.0095 1.48605 18.0854 1.30529 18.2406 1.15017C18.4162 0.974536 18.6224 0.886719 18.8591 0.886719C19.0959 0.886719 19.2871 0.974536 19.4328 1.15017C20.12 1.94889 20.6604 2.84637 21.054 3.84262C21.4476 4.83889 21.6444 5.89139 21.6444 7.00014C21.6444 8.10889 21.4476 9.1614 21.054 10.1577C20.6604 11.1539 20.12 12.0514 19.4328 12.8501C19.2841 13.0258 19.0921 13.1161 18.8569 13.1213C18.6216 13.1264 18.4161 13.041 18.2402 12.8651ZM14.9671 9.59204C14.8289 9.45384 14.7505 9.27738 14.7319 9.06264C14.7133 8.84789 14.7681 8.63732 14.8963 8.43092C15.0386 8.2181 15.147 7.98969 15.2213 7.74569C15.2957 7.50169 15.3329 7.25318 15.3329 7.00014C15.3329 6.73476 15.2957 6.48315 15.2213 6.24532C15.147 6.0075 15.0386 5.78219 14.8963 5.56937C14.7681 5.36297 14.7134 5.15174 14.7322 4.93567C14.751 4.7196 14.8295 4.54367 14.9675 4.40787C15.1431 4.23222 15.3495 4.14696 15.5867 4.15209C15.8238 4.15723 16.0117 4.25274 16.1501 4.43862C16.4142 4.804 16.6248 5.20015 16.7819 5.62707C16.9389 6.054 17.0174 6.51169 17.0174 7.00014C17.0174 7.47578 16.9389 7.93026 16.7819 8.36359C16.6248 8.79693 16.4142 9.19629 16.1501 9.56167C16.0117 9.74755 15.8238 9.84306 15.5867 9.84819C15.3495 9.85333 15.143 9.76794 14.9671 9.59204ZM7.85591 10.5001C6.89342 10.5001 6.06947 10.1574 5.38406 9.47199C4.69866 8.78658 4.35596 7.96263 4.35596 7.00014C4.35596 6.03766 4.69866 5.21371 5.38406 4.52829C6.06947 3.84288 6.89342 3.50017 7.85591 3.50017C8.81841 3.50017 9.64236 3.84288 10.3278 4.52829C11.0132 5.21371 11.3559 6.03766 11.3559 7.00014C11.3559 7.96263 11.0132 8.78658 10.3278 9.47199C9.64236 10.1574 8.81841 10.5001 7.85591 10.5001ZM1.25978 18.1155C1.0037 18.1155 0.78904 18.0289 0.615807 17.8556C0.442574 17.6824 0.355957 17.4677 0.355957 17.2116V15.8924C0.355957 15.3873 0.484799 14.9299 0.742482 14.5203C1.00018 14.1107 1.3598 13.7937 1.82133 13.5694C2.6521 13.1553 3.58158 12.8094 4.60978 12.5319C5.63798 12.2543 6.72002 12.1155 7.85591 12.1155C8.99181 12.1155 10.0739 12.2543 11.1021 12.5319C12.1303 12.8094 13.0597 13.1553 13.8905 13.5694C14.352 13.7937 14.7116 14.1107 14.9693 14.5203C15.227 14.9299 15.3559 15.3873 15.3559 15.8924V17.2116C15.3559 17.4677 15.2693 17.6824 15.096 17.8556C14.9228 18.0289 14.7081 18.1155 14.452 18.1155H1.25978ZM1.85591 16.6155H13.8559V15.8924C13.8559 15.6642 13.794 15.4687 13.6703 15.3059C13.5466 15.1431 13.3905 15.0104 13.2021 14.9078C12.5892 14.595 11.812 14.3014 10.8703 14.027C9.92867 13.7527 8.92386 13.6155 7.85591 13.6155C6.78797 13.6155 5.78317 13.7527 4.84151 14.027C3.89984 14.3014 3.1226 14.595 2.50978 14.9078C2.32132 15.0104 2.16522 15.1431 2.04151 15.3059C1.91777 15.4687 1.85591 15.6642 1.85591 15.8924V16.6155ZM7.85591 9.00014C8.40591 9.00014 8.87674 8.80431 9.26841 8.41264C9.66007 8.02098 9.85591 7.55014 9.85591 7.00014C9.85591 6.45014 9.66007 5.97931 9.26841 5.58764C8.87674 5.19598 8.40591 5.00014 7.85591 5.00014C7.30591 5.00014 6.83507 5.19598 6.44341 5.58764C6.05174 5.97931 5.85591 6.45014 5.85591 7.00014C5.85591 7.55014 6.05174 8.02098 6.44341 8.41264C6.83507 8.80431 7.30591 9.00014 7.85591 9.00014Z" fill="current"/>
</svg>
