<svg width="15" height="15" viewBox="0 0 15 15" fill="none" xmlns="http://www.w3.org/2000/svg">
<g clip-path="url(#clip0_224_200)">
<path d="M7.49997 11.4124C7.80602 11.4124 8.05413 11.1643 8.05413 10.8582C8.05413 10.5522 7.80602 10.3041 7.49997 10.3041C7.19391 10.3041 6.9458 10.5522 6.9458 10.8582C6.9458 11.1643 7.19391 11.4124 7.49997 11.4124Z" fill="current"/>
<path d="M7.49992 9.42086C7.38941 9.42086 7.28343 9.37696 7.20529 9.29882C7.12715 9.22068 7.08325 9.1147 7.08325 9.00419V4.00419C7.08325 3.89368 7.12715 3.7877 7.20529 3.70956C7.28343 3.63142 7.38941 3.58752 7.49992 3.58752C7.61043 3.58752 7.71641 3.63142 7.79455 3.70956C7.87269 3.7877 7.91659 3.89368 7.91659 4.00419V9.00419C7.91659 9.1147 7.87269 9.22068 7.79455 9.29882C7.71641 9.37696 7.61043 9.42086 7.49992 9.42086Z" fill="current"/>
<path d="M7.49992 14.1666C6.18138 14.1666 4.89245 13.7756 3.79612 13.0431C2.69979 12.3105 1.84531 11.2693 1.34072 10.0511C0.83614 8.83297 0.704118 7.49253 0.961353 6.19932C1.21859 4.90611 1.85353 3.71823 2.78588 2.78588C3.71823 1.85353 4.90611 1.21859 6.19932 0.961353C7.49253 0.704118 8.83297 0.83614 10.0511 1.34072C11.2693 1.84531 12.3105 2.69979 13.0431 3.79612C13.7756 4.89245 14.1666 6.18138 14.1666 7.49992C14.1666 9.26803 13.4642 10.9637 12.214 12.214C10.9637 13.4642 9.26803 14.1666 7.49992 14.1666ZM7.49992 1.66659C6.3462 1.66659 5.21838 2.00871 4.2591 2.64968C3.29981 3.29066 2.55214 4.2017 2.11062 5.2676C1.66911 6.3335 1.55359 7.50639 1.77867 8.63795C2.00375 9.7695 2.55933 10.8089 3.37513 11.6247C4.19094 12.4405 5.23034 12.9961 6.3619 13.2212C7.49345 13.4462 8.66634 13.3307 9.73224 12.8892C10.7981 12.4477 11.7092 11.7 12.3502 10.7407C12.9911 9.78146 13.3333 8.65365 13.3333 7.49992C13.3333 5.95283 12.7187 4.46909 11.6247 3.37513C10.5307 2.28117 9.04702 1.66659 7.49992 1.66659Z" fill="current"/>
</g>
<defs>
<clipPath id="clip0_224_200">
<rect width="15" height="15" fill="white"/>
</clipPath>
</defs>
</svg>
