<svg width="24" height="24" viewBox="0 0 24 24" fill="none" xmlns="http://www.w3.org/2000/svg">
<path fill="current" d="M11.9996 18C12.2999 18 12.5517 17.8985 12.755 17.6954C12.9583 17.4923 13.06 17.2406 13.06 16.9403C13.06 16.6401 12.9584 16.3883 12.7553 16.185C12.5522 15.9817 12.3006 15.88 12.0004 15.88C11.7001 15.88 11.4483 15.9816 11.245 16.1847C11.0417 16.3878 10.94 16.6394 10.94 16.9397C10.94 17.2399 11.0416 17.4917 11.2447 17.695C11.4478 17.8983 11.6994 18 11.9996 18ZM12.0635 13.34C12.3478 13.34 12.585 13.2442 12.775 13.0525C12.965 12.8608 13.06 12.6233 13.06 12.34V6.87999C13.06 6.59665 12.9638 6.35915 12.7715 6.16749C12.5791 5.97583 12.3408 5.88 12.0565 5.88C11.7722 5.88 11.535 5.97583 11.345 6.16749C11.155 6.35915 11.06 6.59665 11.06 6.87999V12.34C11.06 12.6233 11.1562 12.8608 11.3485 13.0525C11.5409 13.2442 11.7792 13.34 12.0635 13.34ZM12.0053 24C10.3489 24 8.79221 23.685 7.33533 23.055C5.87845 22.425 4.60667 21.5667 3.51999 20.48C2.43333 19.3933 1.575 18.1211 0.945 16.6632C0.315 15.2053 0 13.6476 0 11.99C0 10.3324 0.315 8.77468 0.945 7.31682C1.575 5.85894 2.43333 4.59 3.51999 3.51C4.60667 2.43 5.87894 1.575 7.3368 0.945C8.79468 0.315 10.3524 0 12.01 0C13.6676 0 15.2253 0.315 16.6832 0.945C18.1411 1.575 19.41 2.43 20.49 3.51C21.57 4.59 22.425 5.86 23.055 7.32C23.685 8.78 24 10.3382 24 11.9947C24 13.6511 23.685 15.2078 23.055 16.6647C22.425 18.1216 21.57 19.3921 20.49 20.4763C19.41 21.5605 18.14 22.4189 16.68 23.0513C15.22 23.6838 13.6618 24 12.0053 24ZM12.01 22C14.79 22 17.15 21.0267 19.09 19.08C21.03 17.1333 22 14.77 22 11.99C22 9.21001 21.0313 6.85 19.0938 4.90998C17.1562 2.96998 14.7917 1.99998 12 1.99998C9.22666 1.99998 6.86666 2.96873 4.92 4.90623C2.97332 6.84375 1.99998 9.20834 1.99998 12C1.99998 14.7733 2.97332 17.1333 4.92 19.08C6.86666 21.0267 9.22999 22 12.01 22Z" />
</svg>
