<svg width="18" height="16" viewBox="0 0 18 15" fill="none" xmlns="http://www.w3.org/2000/svg">
<path d="M9.0043 10.0016C9.9608 10.0016 10.7724 9.66678 11.4391 8.99723C12.1057 8.32767 12.4391 7.51465 12.4391 6.55815C12.4391 5.60165 12.1043 4.79006 11.4347 4.1234C10.7652 3.45673 9.95214 3.1234 8.99564 3.1234C8.03914 3.1234 7.22755 3.45817 6.56089 4.12773C5.89422 4.79728 5.56089 5.61031 5.56089 6.56681C5.56089 7.52331 5.89566 8.3349 6.56522 9.00156C7.23478 9.66823 8.0478 10.0016 9.0043 10.0016ZM8.99997 8.81248C8.37497 8.81248 7.84372 8.59373 7.40622 8.15623C6.96872 7.71873 6.74997 7.18748 6.74997 6.56248C6.74997 5.93748 6.96872 5.40623 7.40622 4.96873C7.84372 4.53123 8.37497 4.31248 8.99997 4.31248C9.62497 4.31248 10.1562 4.53123 10.5937 4.96873C11.0312 5.40623 11.25 5.93748 11.25 6.56248C11.25 7.18748 11.0312 7.71873 10.5937 8.15623C10.1562 8.59373 9.62497 8.81248 8.99997 8.81248ZM8.99997 12.4166C7.16237 12.4166 5.48369 11.9335 3.96393 10.9671C2.44418 10.0008 1.29221 8.70028 0.508011 7.06569C0.48558 7.00158 0.463949 6.92528 0.443115 6.83679C0.422282 6.74831 0.411865 6.65687 0.411865 6.56248C0.411865 6.46809 0.422282 6.37665 0.443115 6.28817C0.463949 6.19968 0.48558 6.12338 0.508011 6.05927C1.29221 4.42467 2.44634 3.13115 3.97043 2.17869C5.49451 1.22623 7.17103 0.75 8.99997 0.75C10.8289 0.75 12.5054 1.22623 14.0295 2.17869C15.5536 3.13115 16.7077 4.42467 17.4919 6.05927C17.5144 6.12338 17.536 6.19968 17.5568 6.28817C17.5777 6.37665 17.5881 6.46809 17.5881 6.56248C17.5881 6.65687 17.5777 6.74831 17.5568 6.83679C17.536 6.92528 17.5144 7.00158 17.4919 7.06569C16.7077 8.70028 15.5558 10.0008 14.036 10.9671C12.5162 11.9335 10.8376 12.4166 8.99997 12.4166ZM8.99616 11.0833C10.5543 11.0833 11.9826 10.6771 13.2812 9.86456C14.5798 9.05206 15.5694 7.95137 16.25 6.56248C15.5694 5.17359 14.5792 4.07984 13.2794 3.28123C11.9795 2.48262 10.5524 2.08331 8.99812 2.08331C7.4438 2.08331 6.01386 2.48262 4.7083 3.28123C3.40275 4.07984 2.40969 5.17359 1.72914 6.56248C2.40969 7.95137 3.40148 9.05206 4.70449 9.86456C6.0075 10.6771 7.43806 11.0833 8.99616 11.0833Z" fill="current"/>
</svg>
