<svg width="18" height="16" viewBox="0 0 18 17" fill="none" xmlns="http://www.w3.org/2000/svg">
<path d="M12.2483 8.74828L11.25 7.74991C11.3055 7.04584 11.0809 6.44621 10.5761 5.95103C10.0713 5.45584 9.4834 5.24296 8.81247 5.31241L7.81409 4.31403C8.00212 4.25741 8.19496 4.21147 8.39262 4.17622C8.59025 4.14096 8.79271 4.12333 8.99997 4.12333C9.95936 4.12333 10.7724 4.45666 11.4391 5.12333C12.1057 5.78999 12.4391 6.60302 12.4391 7.56241C12.4391 7.79745 12.4214 8.01994 12.3862 8.22987C12.3509 8.4398 12.305 8.6126 12.2483 8.74828ZM14.8782 11.3412L13.9166 10.4166C14.4166 10.0277 14.8611 9.60408 15.25 9.14574C15.6389 8.68741 15.9722 8.15963 16.25 7.56241C15.5694 6.17352 14.5833 5.07977 13.2916 4.28116C12 3.48255 10.5694 3.08324 8.99997 3.08324C8.59719 3.08324 8.22566 3.10755 7.88539 3.15616C7.54511 3.20477 7.2083 3.27769 6.87497 3.37491L5.82051 2.32045C6.34722 2.11105 6.87125 1.96361 7.39262 1.87814C7.91398 1.79267 8.44976 1.74993 8.99997 1.74993C10.8525 1.74993 12.5384 2.2339 14.0576 3.20185C15.5769 4.16979 16.7216 5.45557 17.4919 7.0592C17.5144 7.12331 17.536 7.19944 17.5568 7.28757C17.5777 7.37571 17.5881 7.46733 17.5881 7.56241C17.5881 7.65749 17.579 7.7491 17.5608 7.83724C17.5427 7.92538 17.5197 8.00151 17.4919 8.06562C17.1832 8.70128 16.8095 9.29423 16.3709 9.84445C15.9324 10.3947 15.4348 10.8936 14.8782 11.3412ZM14.9038 15.7643L12.0336 12.8989C11.6063 13.057 11.1362 13.1828 10.6234 13.2763C10.1106 13.3698 9.56941 13.4166 8.99997 13.4166C7.13673 13.4166 5.4495 12.9256 3.93828 11.9438C2.42707 10.962 1.28365 9.66924 0.508011 8.06562C0.48558 7.98762 0.463949 7.90802 0.443115 7.82683C0.422282 7.74563 0.411865 7.65749 0.411865 7.56241C0.411865 7.46733 0.41881 7.37438 0.432699 7.28358C0.446587 7.19276 0.471692 7.1153 0.508011 7.0512C0.807164 6.43795 1.17602 5.86289 1.61459 5.32603C2.05316 4.78917 2.52886 4.31615 3.04168 3.90697L1.22276 2.07522C1.09348 1.94594 1.02404 1.78917 1.01443 1.60489C1.00482 1.4206 1.07159 1.26381 1.21474 1.13453C1.34935 0.999923 1.50614 0.932617 1.68509 0.932617C1.86404 0.932617 2.02082 0.999923 2.15543 1.13453L15.8445 14.8445C15.9738 14.9737 16.0384 15.127 16.0384 15.3044C16.0384 15.4817 15.9738 15.635 15.8445 15.7643C15.7099 15.8989 15.5531 15.9662 15.3742 15.9662C15.1952 15.9662 15.0384 15.8989 14.9038 15.7643ZM3.9407 4.80597C3.51442 5.1564 3.10016 5.5672 2.69791 6.03837C2.29566 6.50952 1.97273 7.01753 1.72914 7.56241C2.40969 8.9513 3.3958 10.052 4.68747 10.8645C5.97914 11.677 7.41664 12.0832 8.99997 12.0832C9.33758 12.0832 9.69096 12.0581 10.0601 12.0079C10.4292 11.9577 10.7238 11.8915 10.9439 11.8092L9.97274 10.8541C9.85842 10.8978 9.70778 10.9334 9.5208 10.9606C9.33385 10.9879 9.16023 11.0015 8.99997 11.0015C8.04058 11.0015 7.22755 10.6682 6.56089 10.0015C5.89422 9.33482 5.56089 8.5218 5.56089 7.56241C5.56089 7.40749 5.57798 7.24483 5.61218 7.07443C5.64637 6.90401 5.68537 6.74936 5.72916 6.61047L3.9407 4.80597Z" fill="#current"/>
</svg>
