<svg width="18" height="18" viewBox="0 0 18 18" fill="none" xmlns="http://www.w3.org/2000/svg">
<path d="M12.6231 12.9769C12.4782 12.8115 12.4058 12.6282 12.4058 12.4269C12.4058 12.2256 12.4782 12.0525 12.6231 11.9077L14.5308 9.99998H6.86537C6.65255 9.99998 6.47435 9.92818 6.33077 9.7846C6.18718 9.64102 6.11539 9.46282 6.11539 9.25C6.11539 9.03718 6.18718 8.85898 6.33077 8.7154C6.47435 8.5718 6.65255 8.5 6.86537 8.5H14.5308L12.6135 6.5827C12.4647 6.43398 12.3904 6.25899 12.3904 6.05772C12.3904 5.85644 12.468 5.67823 12.6231 5.5231C12.768 5.36798 12.941 5.29043 13.1423 5.29043C13.3436 5.29043 13.5166 5.36286 13.6615 5.50772L16.7711 8.6173C16.8647 8.7109 16.9307 8.80962 16.9692 8.91345C17.0076 9.0173 17.0269 9.12948 17.0269 9.25C17.0269 9.3705 17.0076 9.48267 16.9692 9.58652C16.9307 9.69037 16.8647 9.78909 16.7711 9.88267L13.6519 13.0019C13.4929 13.1608 13.318 13.2326 13.1269 13.2172C12.9359 13.2019 12.768 13.1217 12.6231 12.9769ZM2.40387 18C1.89875 18 1.47119 17.825 1.12119 17.475C0.771191 17.125 0.596191 16.6974 0.596191 16.1923V2.3077C0.596191 1.80257 0.771191 1.375 1.12119 1.025C1.47119 0.675 1.89875 0.5 2.40387 0.5H8.36539C8.57821 0.5 8.75642 0.5718 8.90002 0.7154C9.0436 0.858983 9.11539 1.03718 9.11539 1.25C9.11539 1.46282 9.0436 1.64102 8.90002 1.7846C8.75642 1.92818 8.57821 1.99997 8.36539 1.99997H2.40387C2.32693 1.99997 2.25642 2.03202 2.19232 2.09613C2.1282 2.16024 2.09614 2.23077 2.09614 2.3077V16.1923C2.09614 16.2692 2.1282 16.3398 2.19232 16.4039C2.25642 16.468 2.32693 16.5 2.40387 16.5H8.36539C8.57821 16.5 8.75642 16.5718 8.90002 16.7154C9.0436 16.859 9.11539 17.0372 9.11539 17.25C9.11539 17.4628 9.0436 17.641 8.90002 17.7846C8.75642 17.9282 8.57821 18 8.36539 18H2.40387Z" fill="#3A3A3C"/>
</svg>
