<svg width="19" height="17" viewBox="0 0 19 17" fill="none" xmlns="http://www.w3.org/2000/svg">
<path d="M7.99997 7.69231C7.03749 7.69231 6.21354 7.34961 5.52813 6.66421C4.84271 5.97879 4.5 5.15484 4.5 4.19236C4.5 3.22986 4.84271 2.40591 5.52813 1.72051C6.21354 1.03509 7.03749 0.692383 7.99997 0.692383C8.96246 0.692383 9.78641 1.03509 10.4718 1.72051C11.1572 2.40591 11.5 3.22986 11.5 4.19236C11.5 5.15484 11.1572 5.97879 10.4718 6.66421C9.78641 7.34961 8.96246 7.69231 7.99997 7.69231ZM1.40745 15.3077C1.14737 15.3077 0.931108 15.2211 0.758675 15.0478C0.586225 14.8746 0.5 14.6599 0.5 14.4038V13.0846C0.5 12.5795 0.62885 12.1221 0.88655 11.7125C1.14423 11.3029 1.50384 10.9859 1.96537 10.7616C2.79616 10.3475 3.69359 10.0016 4.65768 9.72408C5.62178 9.44653 6.73587 9.30776 7.99997 9.30776H8.29227C8.37304 9.30776 8.46022 9.31801 8.55382 9.33851C8.45254 9.57441 8.36888 9.81479 8.30285 10.0597C8.23683 10.3045 8.18203 10.5539 8.13845 10.8077H7.99997C6.84869 10.8077 5.82947 10.9401 4.9423 11.2048C4.05512 11.4696 3.29229 11.768 2.65383 12.1C2.42691 12.2218 2.2612 12.3641 2.1567 12.5269C2.05222 12.6898 1.99998 12.8757 1.99998 13.0846V13.8077H8.29997C8.37432 14.0615 8.4708 14.3192 8.5894 14.5808C8.70798 14.8423 8.83843 15.0846 8.98073 15.3077H1.40745ZM7.99997 6.19236C8.54997 6.19236 9.02081 5.99652 9.41247 5.60486C9.80414 5.21319 9.99998 4.74236 9.99998 4.19236C9.99998 3.64236 9.80414 3.17152 9.41247 2.77986C9.02081 2.38819 8.54997 2.19236 7.99997 2.19236C7.44997 2.19236 6.97914 2.38819 6.58747 2.77986C6.19581 3.17152 5.99997 3.64236 5.99997 4.19236C5.99997 4.74236 6.19581 5.21319 6.58747 5.60486C6.97914 5.99652 7.44997 6.19236 7.99997 6.19236ZM14.8085 13.5385C15.3323 13.5385 15.7804 13.352 16.1529 12.979C16.5253 12.606 16.7115 12.1576 16.7115 11.6338C16.7115 11.11 16.525 10.6619 16.152 10.2894C15.779 9.917 15.3306 9.73078 14.8068 9.73078C14.283 9.73078 13.8349 9.91728 13.4625 10.2903C13.09 10.6633 12.9038 11.1117 12.9038 11.6355C12.9038 12.1593 13.0903 12.6074 13.4633 12.9798C13.8363 13.3522 14.2847 13.5385 14.8085 13.5385ZM13.8827 14.7211C13.6442 14.6506 13.4199 14.5583 13.2096 14.4442C12.9993 14.3301 12.7993 14.1872 12.6096 14.0154L11.65 14.35C11.5528 14.3833 11.4626 14.3807 11.3793 14.3423C11.2961 14.3038 11.2267 14.241 11.1711 14.1538L10.8019 13.5385C10.7481 13.4577 10.7305 13.3686 10.7491 13.2712C10.7676 13.1737 10.8173 13.093 10.8981 13.0289L11.6654 12.4C11.5936 12.141 11.5577 11.8859 11.5577 11.6346C11.5577 11.3833 11.5936 11.1282 11.6654 10.8692L10.9077 10.2212C10.8269 10.1571 10.7773 10.0763 10.7587 9.97886C10.7401 9.88142 10.7577 9.78912 10.8116 9.70193L11.1808 9.08658C11.2363 9.00795 11.3057 8.95047 11.389 8.91413C11.4722 8.87782 11.5625 8.87632 11.6596 8.90966L12.6096 9.24428C12.7929 9.07248 12.9913 8.93113 13.2048 8.82023C13.4183 8.70933 13.6442 8.61862 13.8827 8.54811L14.05 7.55388C14.0779 7.45685 14.1268 7.37715 14.1967 7.31478C14.2665 7.2524 14.3503 7.22121 14.4481 7.22121H15.1865C15.2873 7.22121 15.3737 7.2523 15.4458 7.31448C15.5178 7.37665 15.564 7.45645 15.5846 7.55388L15.7423 8.54811C15.9807 8.61862 16.2067 8.7119 16.4201 8.82793C16.6336 8.94395 16.832 9.09298 17.0153 9.27503L17.95 8.90966C18.0474 8.86608 18.1417 8.86608 18.2329 8.90966C18.324 8.95324 18.3977 9.01863 18.4538 9.10581L18.823 9.75193C18.8768 9.8327 18.8954 9.9202 18.8788 10.0144C18.8621 10.1087 18.8134 10.1878 18.7326 10.2519L17.9595 10.9C18.0313 11.1405 18.0672 11.391 18.0672 11.6515C18.0672 11.9121 18.0313 12.1615 17.9595 12.4L18.7269 13.0289C18.814 13.093 18.8637 13.1753 18.8759 13.276C18.8881 13.3766 18.8672 13.4705 18.8134 13.5577L18.4442 14.1731C18.3898 14.2517 18.3218 14.3092 18.2402 14.3455C18.1586 14.3818 18.0702 14.3833 17.975 14.35L17.0153 14.0154C16.8256 14.1872 16.6256 14.3301 16.4153 14.4442C16.2051 14.5583 15.9807 14.6506 15.7423 14.7211L15.5846 15.7154C15.564 15.8128 15.5178 15.8926 15.4458 15.9548C15.3737 16.0169 15.2873 16.048 15.1865 16.048H14.4481C14.3503 16.048 14.2665 16.0168 14.1967 15.9545C14.1268 15.8921 14.0779 15.8124 14.05 15.7154L13.8827 14.7211Z" fill="current"/>
</svg>
