<svg width="24" height="24" viewBox="0 0 24 24" fill="none" xmlns="http://www.w3.org/2000/svg">
<path d="M6.29202 15.462L10.172 11.582L6.29202 7.70202C6.19944 7.60944 6.126 7.49953 6.07589 7.37856C6.02579 7.2576 6 7.12795 6 6.99702C6 6.86609 6.02579 6.73644 6.07589 6.61548C6.126 6.49451 6.19944 6.3846 6.29202 6.29202C6.3846 6.19944 6.49451 6.126 6.61548 6.07589C6.73644 6.02579 6.86609 6 6.99702 6C7.12795 6 7.2576 6.02579 7.37856 6.07589C7.49953 6.126 7.60944 6.19944 7.70202 6.29202L12.292 10.882C12.682 11.272 12.682 11.902 12.292 12.292L7.70202 16.882C7.60951 16.9747 7.49962 17.0483 7.37864 17.0985C7.25767 17.1486 7.12799 17.1745 6.99702 17.1745C6.86605 17.1745 6.73637 17.1486 6.6154 17.0985C6.49442 17.0483 6.38453 16.9747 6.29202 16.882C5.91202 16.492 5.90202 15.852 6.29202 15.462Z" fill="#8F90A6"/>
<path d="M11.8765 15.462L15.7565 11.582L11.8765 7.70202C11.7839 7.60944 11.7105 7.49953 11.6604 7.37856C11.6103 7.2576 11.5845 7.12795 11.5845 6.99702C11.5845 6.86609 11.6103 6.73644 11.6604 6.61548C11.7105 6.49451 11.7839 6.3846 11.8765 6.29202C11.9691 6.19944 12.079 6.126 12.2 6.07589C12.3209 6.02579 12.4506 6 12.5815 6C12.7124 6 12.8421 6.02579 12.963 6.07589C13.084 6.126 13.1939 6.19944 13.2865 6.29202L17.8765 10.882C18.2665 11.272 18.2665 11.902 17.8765 12.292L13.2865 16.882C13.194 16.9747 13.0841 17.0483 12.9631 17.0985C12.8421 17.1486 12.7125 17.1745 12.5815 17.1745C12.4505 17.1745 12.3208 17.1486 12.1999 17.0985C12.0789 17.0483 11.969 16.9747 11.8765 16.882C11.4965 16.492 11.4865 15.852 11.8765 15.462Z" fill="#8F90A6"/>
</svg>
