<svg width="24" height="24" viewBox="0 0 24 24" fill="none" xmlns="http://www.w3.org/2000/svg">
<path d="M17.8769 15.462L13.9969 11.582L17.8769 7.70202C17.9695 7.60944 18.0429 7.49953 18.093 7.37856C18.1431 7.2576 18.1689 7.12795 18.1689 6.99702C18.1689 6.86609 18.1431 6.73644 18.093 6.61548C18.0429 6.49451 17.9695 6.3846 17.8769 6.29202C17.7843 6.19944 17.6744 6.126 17.5535 6.07589C17.4325 6.02579 17.3028 6 17.1719 6C17.041 6 16.9113 6.02579 16.7904 6.07589C16.6694 6.126 16.5595 6.19944 16.4669 6.29202L11.8769 10.882C11.7842 10.9745 11.7107 11.0844 11.6605 11.2054C11.6103 11.3264 11.5845 11.4561 11.5845 11.587C11.5845 11.718 11.6103 11.8477 11.6605 11.9686C11.7107 12.0896 11.7842 12.1995 11.8769 12.292L16.4669 16.882C16.8569 17.272 17.4869 17.272 17.8769 16.882C18.2569 16.492 18.2669 15.852 17.8769 15.462Z" fill="#8F90A6"/>
<path d="M12.2924 15.462L8.41244 11.582L12.2924 7.70202C12.385 7.60944 12.4585 7.49953 12.5086 7.37856C12.5587 7.2576 12.5845 7.12795 12.5845 6.99702C12.5845 6.86609 12.5587 6.73644 12.5086 6.61548C12.4585 6.49451 12.385 6.3846 12.2924 6.29202C12.1999 6.19944 12.09 6.126 11.969 6.07589C11.848 6.02579 11.7184 6 11.5874 6C11.4565 6 11.3269 6.02579 11.2059 6.07589C11.0849 6.126 10.975 6.19944 10.8824 6.29202L6.29244 10.882C6.19974 10.9745 6.12619 11.0844 6.07601 11.2054C6.02583 11.3264 6 11.4561 6 11.587C6 11.718 6.02583 11.8477 6.07601 11.9686C6.12619 12.0896 6.19974 12.1995 6.29244 12.292L10.8824 16.882C11.2724 17.272 11.9024 17.272 12.2924 16.882C12.6724 16.492 12.6824 15.852 12.2924 15.462Z" fill="#8F90A6"/>
</svg>
