<svg width="38" height="38" viewBox="0 0 38 38" fill="none" xmlns="http://www.w3.org/2000/svg">
<path fill="current" d="M17.9769 20.2769V27.3654C17.9769 27.6869 18.0866 27.9563 18.3059 28.1738C18.5252 28.3912 18.797 28.5 19.1213 28.5C19.4455 28.5 19.7141 28.3912 19.9269 28.1738C20.1397 27.9563 20.2461 27.6869 20.2461 27.3654V20.2769H27.3653C27.6868 20.2769 27.9562 20.1672 28.1737 19.9479C28.3912 19.7286 28.4999 19.4568 28.4999 19.1325C28.4999 18.8083 28.3912 18.5397 28.1737 18.327C27.9562 18.1141 27.6868 18.0077 27.3653 18.0077H20.2461V10.6347C20.2461 10.3132 20.1364 10.0437 19.9171 9.82625C19.6977 9.60878 19.4259 9.50005 19.1017 9.50005C18.7775 9.50005 18.5089 9.60878 18.2961 9.82625C18.0833 10.0437 17.9769 10.3132 17.9769 10.6347V18.0077H10.6346C10.3131 18.0077 10.0436 18.1174 9.8262 18.3367C9.60873 18.5561 9.5 18.8279 9.5 19.1521C9.5 19.4763 9.60873 19.7449 9.8262 19.9577C10.0436 20.1705 10.3131 20.2769 10.6346 20.2769H17.9769ZM19.0166 38C16.3848 38 13.9185 37.5013 11.6177 36.504C9.3169 35.5066 7.3043 34.1448 5.5799 32.4185C3.8555 30.6921 2.49442 28.6791 1.49665 26.3796C0.498884 24.0801 0 21.6162 0 18.9879C0 16.3597 0.498667 13.8921 1.496 11.5852C2.49333 9.27818 3.85517 7.26948 5.5815 5.55905C7.30787 3.84858 9.32082 2.49447 11.6203 1.4967C13.9199 0.498933 16.3838 4.95911e-05 19.012 4.95911e-05C21.6402 4.95911e-05 24.1078 0.498716 26.4148 1.49605C28.7218 2.49338 30.7305 3.84688 32.4409 5.55655C34.1514 7.26625 35.5055 9.27673 36.5033 11.588C37.501 13.8992 37.9999 16.3644 37.9999 18.9834C37.9999 21.6152 37.5012 24.0815 36.5039 26.3823C35.5066 28.6831 34.1531 30.6926 32.4434 32.4109C30.7337 34.1291 28.7232 35.4902 26.412 36.4941C24.1007 37.498 21.6356 38 19.0166 38ZM19.0154 35.7308C23.6615 35.7308 27.6089 34.1013 30.8577 30.8423C34.1064 27.5833 35.7307 23.6308 35.7307 18.9846C35.7307 14.3385 34.1099 10.391 30.8684 7.1423C27.6268 3.8936 23.6706 2.26925 19 2.26925C14.364 2.26925 10.4166 3.89003 7.15765 7.1316C3.89868 10.3732 2.2692 14.3293 2.2692 19C2.2692 23.6359 3.89868 27.5833 7.15765 30.8423C10.4166 34.1013 14.3692 35.7308 19.0154 35.7308Z" fill="#EBEBF0"/>
</svg>
