<svg width="9" height="9" viewBox="0 0 9 9" fill="none" xmlns="http://www.w3.org/2000/svg">
<path d="M4.38382 5.31712L1.11716 8.58379C0.994933 8.70601 0.839377 8.76713 0.650488 8.76713C0.461599 8.76713 0.306044 8.70601 0.183822 8.58379C0.0615994 8.46157 0.000488281 8.30601 0.000488281 8.11712C0.000488281 7.92824 0.0615994 7.77268 0.183822 7.65046L3.45049 4.38379L0.183822 1.11712C0.0615994 0.994902 0.000488281 0.839347 0.000488281 0.650458C0.000488281 0.461569 0.0615994 0.306013 0.183822 0.183791C0.306044 0.0615689 0.461599 0.000457764 0.650488 0.000457764C0.839377 0.000457764 0.994933 0.0615689 1.11716 0.183791L4.38382 3.45046L7.65049 0.183791C7.77271 0.0615689 7.92827 0.000457764 8.11716 0.000457764C8.30604 0.000457764 8.4616 0.0615689 8.58382 0.183791C8.70604 0.306013 8.76716 0.461569 8.76716 0.650458C8.76716 0.839347 8.70604 0.994902 8.58382 1.11712L5.31716 4.38379L8.58382 7.65046C8.70604 7.77268 8.76716 7.92824 8.76716 8.11712C8.76716 8.30601 8.70604 8.46157 8.58382 8.58379C8.4616 8.70601 8.30604 8.76713 8.11716 8.76713C7.92827 8.76713 7.77271 8.70601 7.65049 8.58379L4.38382 5.31712Z" fill="white"/>
</svg>
