<svg width="18.25" height="19" viewBox="0 0 20 20" fill="none" xmlns="http://www.w3.org/2000/svg">
<path d="M11.5095 19.5H8.48067C8.25631 19.5 8.06207 19.4246 7.89797 19.274C7.73387 19.1233 7.63516 18.9358 7.60182 18.7115L7.31145 16.4538C7.0435 16.3641 6.76882 16.2384 6.4874 16.0769C6.20598 15.9153 5.95437 15.7422 5.73257 15.5576L3.64412 16.4384C3.43002 16.5217 3.21752 16.5301 3.00662 16.4634C2.79572 16.3967 2.63002 16.2647 2.5095 16.0673L1.0057 13.4481C0.885182 13.2506 0.848324 13.0397 0.895124 12.8154C0.941907 12.591 1.05568 12.4102 1.23645 12.2731L3.04415 10.9058C3.02107 10.757 3.00472 10.6077 2.9951 10.4577C2.98548 10.3077 2.98067 10.1583 2.98067 10.0096C2.98067 9.86728 2.98548 9.72273 2.9951 9.57593C3.00472 9.42913 3.02107 9.26855 3.04415 9.0942L1.23645 7.72688C1.05568 7.58971 0.941907 7.40894 0.895124 7.18458C0.848324 6.96023 0.885182 6.74933 1.0057 6.5519L2.5095 3.95195C2.61977 3.74425 2.78131 3.60963 2.99412 3.5481C3.20694 3.48657 3.4204 3.49747 3.6345 3.5808L5.72295 4.45195C5.96398 4.26092 6.22136 4.08623 6.49507 3.9279C6.76881 3.76955 7.03772 3.6423 7.30182 3.54615L7.60182 1.28847C7.63516 1.06411 7.73387 0.876608 7.89797 0.725975C8.06207 0.575325 8.25631 0.5 8.48067 0.5H11.5095C11.7338 0.5 11.9296 0.575325 12.0969 0.725975C12.2643 0.876608 12.3646 1.06411 12.3979 1.28847L12.6883 3.55577C12.9883 3.66474 13.2598 3.79198 13.5027 3.9375C13.7457 4.08302 13.9909 4.2545 14.2383 4.45195L16.3652 3.5808C16.5793 3.49747 16.7902 3.48753 16.9979 3.55098C17.2056 3.61444 17.3697 3.74489 17.4902 3.94233L18.994 6.5519C19.1146 6.74933 19.1514 6.96023 19.1046 7.18458C19.0578 7.40894 18.9441 7.58971 18.7633 7.72688L16.9171 9.12303C16.953 9.28458 16.9726 9.43554 16.9758 9.57593C16.979 9.71631 16.9806 9.85766 16.9806 9.99998C16.9806 10.1359 16.9774 10.274 16.971 10.4144C16.9646 10.5548 16.9415 10.7154 16.9017 10.8962L18.7287 12.2731C18.9159 12.4038 19.0312 12.583 19.0748 12.8106C19.1184 13.0381 19.08 13.2506 18.9594 13.4481L17.4556 16.0519C17.3351 16.2493 17.1668 16.3823 16.9508 16.4509C16.7348 16.5195 16.5197 16.5121 16.3056 16.4288L14.2383 15.548C13.9909 15.7455 13.7383 15.9201 13.4806 16.0721C13.2229 16.224 12.9588 16.348 12.6883 16.4442L12.3979 18.7115C12.3646 18.9358 12.2643 19.1233 12.0969 19.274C11.9296 19.4246 11.7338 19.5 11.5095 19.5ZM10.0114 13C10.8434 13 11.5515 12.708 12.1354 12.124C12.7194 11.54 13.0114 10.832 13.0114 9.99998C13.0114 9.16794 12.7194 8.45993 12.1354 7.87595C11.5515 7.29198 10.8434 7 10.0114 7C9.16912 7 8.45855 7.29198 7.8797 7.87595C7.30087 8.45993 7.01145 9.16794 7.01145 9.99998C7.01145 10.832 7.30087 11.54 7.8797 12.124C8.45855 12.708 9.16912 13 10.0114 13ZM10.0114 11.5C9.59473 11.5 9.24057 11.3541 8.9489 11.0625C8.65723 10.7708 8.5114 10.4166 8.5114 9.99998C8.5114 9.58331 8.65723 9.22914 8.9489 8.93748C9.24057 8.64581 9.59473 8.49998 10.0114 8.49998C10.4281 8.49998 10.7822 8.64581 11.0739 8.93748C11.3656 9.22914 11.5114 9.58331 11.5114 9.99998C11.5114 10.4166 11.3656 10.7708 11.0739 11.0625C10.7822 11.3541 10.4281 11.5 10.0114 11.5ZM8.99987 18H10.9652L11.3249 15.3211C11.8351 15.1878 12.3015 14.9984 12.7239 14.7529C13.1463 14.5074 13.5537 14.1917 13.946 13.8058L16.4306 14.85L17.4152 13.15L15.246 11.5154C15.3294 11.2564 15.3861 11.0025 15.4162 10.7538C15.4463 10.5051 15.4614 10.2538 15.4614 9.99998C15.4614 9.73973 15.4463 9.48844 15.4162 9.24613C15.3861 9.00383 15.3294 8.75639 15.246 8.50383L17.4345 6.84998L16.4499 5.14998L13.9364 6.2096C13.6018 5.8519 13.2008 5.53588 12.7335 5.26153C12.2662 4.98716 11.7934 4.79292 11.3152 4.67882L10.9999 1.99997H9.01525L8.6845 4.6692C8.17423 4.78972 7.70307 4.97433 7.27102 5.22305C6.83897 5.47177 6.4268 5.79228 6.0345 6.1846L3.54987 5.14998L2.56525 6.84998L4.72487 8.4596C4.64154 8.69677 4.58321 8.94356 4.54987 9.19998C4.51654 9.45639 4.49987 9.72627 4.49987 10.0096C4.49987 10.2699 4.51654 10.525 4.54987 10.775C4.58321 11.025 4.63833 11.2718 4.71525 11.5154L2.56525 13.15L3.54987 14.85L6.02487 13.8C6.40436 14.1897 6.81012 14.509 7.24217 14.7577C7.67422 15.0064 8.15179 15.1974 8.67487 15.3308L8.99987 18Z" fill="#3A3A3C"/>
</svg>
