<svg width="20" height="20" viewBox="0 0 20 20" fill="none" xmlns="http://www.w3.org/2000/svg">
<path d="M8.88884 2.22217C7.5703 2.22217 6.28136 2.61316 5.18504 3.3457C4.08871 4.07825 3.23423 5.11944 2.72964 6.33761C2.22506 7.55579 2.09303 8.89623 2.35027 10.1894C2.6075 11.4826 3.24244 12.6705 4.17479 13.6029C5.10714 14.5352 6.29503 15.1702 7.58824 15.4274C8.88144 15.6846 10.2219 15.5526 11.4401 15.048C12.6582 14.5434 13.6994 13.689 14.432 12.5926C15.1645 11.4963 15.5555 10.2074 15.5555 8.88884C15.5555 7.12073 14.8531 5.42503 13.6029 4.17479C12.3526 2.92455 10.6569 2.22217 8.88884 2.22217ZM8.88884 14.3944C7.78793 14.3943 6.71186 14.0672 5.7972 13.4545C4.88254 12.8418 4.17054 11.9712 3.75156 10.9531C3.33259 9.93508 3.22553 8.81549 3.44397 7.73648C3.66242 6.65746 4.19652 5.66768 4.97849 4.89275C5.76046 4.11782 6.75503 3.59268 7.83598 3.384C8.91692 3.17532 10.0355 3.2925 11.0497 3.72066C12.064 4.14882 12.9281 4.86867 13.5325 5.78883C14.1369 6.70899 14.4543 7.78798 14.4444 8.88884C14.4312 10.3536 13.8401 11.7538 12.7996 12.7849C11.7592 13.816 10.3536 14.3945 8.88884 14.3944Z" fill="#FAFAFC"/>
<path d="M17.6166 16.4944L14.7444 13.6222C14.5077 13.915 14.2496 14.1898 13.9722 14.4444L16.8333 17.3055C16.9396 17.3965 17.0763 17.4441 17.2161 17.4387C17.3559 17.4333 17.4885 17.3753 17.5875 17.2764C17.6864 17.1775 17.7444 17.0448 17.7498 16.905C17.7552 16.7652 17.7076 16.6285 17.6166 16.5222V16.4944Z" fill="#FAFAFC"/>
<path d="M11.6668 8.33332H9.44455V6.1111C9.44455 5.96376 9.38602 5.82245 9.28183 5.71826C9.17765 5.61407 9.03634 5.55554 8.889 5.55554C8.74165 5.55554 8.60035 5.61407 8.49616 5.71826C8.39197 5.82245 8.33344 5.96376 8.33344 6.1111V8.33332H6.11122C5.96388 8.33332 5.82257 8.39185 5.71838 8.49604C5.6142 8.60022 5.55566 8.74153 5.55566 8.88888C5.55566 9.03622 5.6142 9.17753 5.71838 9.28171C5.82257 9.3859 5.96388 9.44443 6.11122 9.44443H8.33344V11.6667C8.33344 11.814 8.39197 11.9553 8.49616 12.0595C8.60035 12.1637 8.74165 12.2222 8.889 12.2222C9.03634 12.2222 9.17765 12.1637 9.28183 12.0595C9.38602 11.9553 9.44455 11.814 9.44455 11.6667V9.44443H11.6668C11.8141 9.44443 11.9554 9.3859 12.0596 9.28171C12.1638 9.17753 12.2223 9.03622 12.2223 8.88888C12.2223 8.74153 12.1638 8.60022 12.0596 8.49604C11.9554 8.39185 11.8141 8.33332 11.6668 8.33332Z" fill="#FAFAFC"/>
</svg>
